<svg xmlns="http://www.w3.org/2000/svg" viewBox="0 0 100 100" width="500" height="500" class="illustration"><defs><style>.cls-1{fill:#0099f5;}.cls-2{fill:#ffd44d;}.cls-3,.cls-6{fill:none;}.cls-3,.cls-4,.cls-5,.cls-6{stroke:#231f20;stroke-width:1.5px;}.cls-3{stroke-miterlimit:10;}.cls-4{fill:#0064f4;}.cls-4,.cls-5,.cls-6{stroke-linejoin:bevel;}.cls-5{fill:#f0457d;}</style></defs><g id="Layer_2" data-name="Layer 2"><path class="cls-1" d="M23.78,29.13H76.22A4.88,4.88,0,0,1,81.11,34V67a0,0,0,0,1,0,0H18.89a0,0,0,0,1,0,0V34A4.88,4.88,0,0,1,23.78,29.13Z"></path><polygon class="cls-2" points="8.7 77.12 91.3 77.12 81.11 67.04 18.89 67.04 8.7 77.12"></polygon><path class="cls-3" d="M56.34,29.13H76.07a5,5,0,0,1,5,5V67H18.89V34.17a5,5,0,0,1,5-5H43.19"></path><line class="cls-3" x1="8.7" y1="77.12" x2="91.3" y2="77.12"></line><path class="cls-3" d="M91.3,77.12,81.11,67H18.89L8.7,77.12h0a2.68,2.68,0,0,0,2.67,2.67H88.63a2.68,2.68,0,0,0,2.67-2.67Z"></path><path class="cls-4" d="M43.63,20.21H67.9a6.46,6.46,0,0,1,6.46,6.46V46.18a6.46,6.46,0,0,1-6.46,6.46H43.63A11.81,11.81,0,0,1,31.82,40.82V32A11.81,11.81,0,0,1,43.63,20.21Z"></path><path class="cls-5" d="M69.1,20.21H41.44c-2.9,0-9.62,2.36-9.62,5.26V47.38c0,2.9,6.72,5.26,9.62,5.26h1.33l-4,8.42h4l8.43-8.42H69.1a5.26,5.26,0,0,0,5.25-5.26V25.47A5.26,5.26,0,0,0,69.1,20.21Z"></path><path class="cls-2" d="M65.12,20.21h-32a5.26,5.26,0,0,0-5.26,5.26V47.38a5.26,5.26,0,0,0,5.26,5.26h5.69v8.42l8.43-8.42h17.9a5.27,5.27,0,0,0,5.26-5.26V25.47A5.27,5.27,0,0,0,65.12,20.21Z"></path><path class="cls-6" d="M29.38,21.75a5.25,5.25,0,0,1,3.72-1.54h32a5.27,5.27,0,0,1,5.26,5.26V47.38a5.27,5.27,0,0,1-5.26,5.26H47.22l-8.43,8.42V52.64H33.1a5.26,5.26,0,0,1-5.26-5.26V34.5"></path><polyline class="cls-6" points="70.78 24.23 49.11 36.22 27.84 24.23"></polyline></g></svg>